<svg width="620mm" height="259mm" viewBox="0 0 620 259" xmlns="http://www.w3.org/2000/svg" version="1.1" preserveAspectRatio="xMidYMid meet"><g id="svgGroup" stroke-linecap="round" fill-rule="evenodd" font-size="9pt" stroke="#000" stroke-width="0.25mm" fill="none" style="stroke:#000;stroke-width:0.25mm;fill:none"><path d="M 0 201 L 0 222 L 4 222 L 4 238 L 0 238 L 0 254 L 0 259 L 17.5 259 L 17.5 255 L 33.5 255 L 33.5 259 L 49.5 259 L 49.5 255 L 65.5 255 L 65.5 259 L 81.5 259 L 81.5 255 L 97.5 255 L 97.5 259 L 113.5 259 L 113.5 255 L 129.5 255 L 129.5 259 L 145.5 259 L 145.5 255 L 161.5 255 L 161.5 259 L 177.5 259 L 177.5 255 L 193.5 255 L 193.5 259 L 209.5 259 L 209.5 255 L 225.5 255 L 225.5 259 L 243 259 L 243 238 L 239 238 L 239 222 L 243 222 L 243 206 L 243 201 L 225.5 201 L 225.5 205 L 209.5 205 L 209.5 201 L 193.5 201 L 193.5 205 L 177.5 205 L 177.5 201 L 161.5 201 L 161.5 205 L 145.5 205 L 145.5 201 L 129.5 201 L 129.5 205 L 113.5 205 L 113.5 201 L 97.5 201 L 97.5 205 L 81.5 205 L 81.5 201 L 65.5 201 L 65.5 205 L 49.5 205 L 49.5 201 L 33.5 201 L 33.5 205 L 17.5 205 L 17.5 201 L 0 201 Z" id="front_outsideCutPath" stroke="#FF0000" stroke-width="0.1" style="stroke:#FF0000;stroke-width:0.1" vector-effect="non-scaling-stroke"/><path d="M 250 201 L 250 222 L 246 222 L 246 238 L 250 238 L 250 254 L 250 259 L 270 259 L 270 255 L 286 255 L 286 259 L 302 259 L 302 255 L 318 255 L 318 259 L 334 259 L 334 255 L 350 255 L 350 259 L 366 259 L 370 259 L 370 238 L 374 238 L 374 222 L 370 222 L 370 206 L 370 201 L 350 201 L 350 205 L 334 205 L 334 201 L 318 201 L 318 205 L 302 205 L 302 201 L 286 201 L 286 205 L 270 205 L 270 201 L 254 201 L 250 201 Z" id="left_outsideCutPath" stroke="#FF0000" stroke-width="0.1" style="stroke:#FF0000;stroke-width:0.1" vector-effect="non-scaling-stroke"/><path d="M 381 135 L 381 155 L 377 155 L 377 171 L 381 171 L 381 187 L 377 187 L 377 203 L 381 203 L 381 219 L 377 219 L 377 235 L 381 235 L 381 251 L 381 255 L 394.5 255 L 394.5 259 L 410.5 259 L 410.5 255 L 426.5 255 L 426.5 259 L 442.5 259 L 442.5 255 L 458.5 255 L 458.5 259 L 474.5 259 L 474.5 255 L 490.5 255 L 490.5 259 L 506.5 259 L 506.5 255 L 522.5 255 L 522.5 259 L 538.5 259 L 538.5 255 L 554.5 255 L 554.5 259 L 570.5 259 L 570.5 255 L 586.5 255 L 586.5 259 L 602.5 259 L 602.5 255 L 616 255 L 616 235 L 620 235 L 620 219 L 616 219 L 616 203 L 620 203 L 620 187 L 616 187 L 616 171 L 620 171 L 620 155 L 616 155 L 616 139 L 616 135 L 602.5 135 L 602.5 131 L 586.5 131 L 586.5 135 L 570.5 135 L 570.5 131 L 554.5 131 L 554.5 135 L 538.5 135 L 538.5 131 L 522.5 131 L 522.5 135 L 506.5 135 L 506.5 131 L 490.5 131 L 490.5 135 L 474.5 135 L 474.5 131 L 458.5 131 L 458.5 135 L 442.5 135 L 442.5 131 L 426.5 131 L 426.5 135 L 410.5 135 L 410.5 131 L 394.5 131 L 394.5 135 L 381 135 Z" id="top_outsideCutPath" stroke="#FF0000" stroke-width="0.1" style="stroke:#FF0000;stroke-width:0.1" vector-effect="non-scaling-stroke"/><path d="M 0 140 L 0 161 L 4 161 L 4 177 L 0 177 L 0 193 L 0 198 L 17.5 198 L 17.5 194 L 33.5 194 L 33.5 198 L 49.5 198 L 49.5 194 L 65.5 194 L 65.5 198 L 81.5 198 L 81.5 194 L 97.5 194 L 97.5 198 L 113.5 198 L 113.5 194 L 129.5 194 L 129.5 198 L 145.5 198 L 145.5 194 L 161.5 194 L 161.5 198 L 177.5 198 L 177.5 194 L 193.5 194 L 193.5 198 L 209.5 198 L 209.5 194 L 225.5 194 L 225.5 198 L 243 198 L 243 177 L 239 177 L 239 161 L 243 161 L 243 145 L 243 140 L 225.5 140 L 225.5 144 L 209.5 144 L 209.5 140 L 193.5 140 L 193.5 144 L 177.5 144 L 177.5 140 L 161.5 140 L 161.5 144 L 145.5 144 L 145.5 140 L 129.5 140 L 129.5 144 L 113.5 144 L 113.5 140 L 97.5 140 L 97.5 144 L 81.5 144 L 81.5 140 L 65.5 140 L 65.5 144 L 49.5 144 L 49.5 140 L 33.5 140 L 33.5 144 L 17.5 144 L 17.5 140 L 0 140 Z" id="back_outsideCutPath" stroke="#FF0000" stroke-width="0.1" style="stroke:#FF0000;stroke-width:0.1" vector-effect="non-scaling-stroke"/><path d="M 250 140 L 250 161 L 246 161 L 246 177 L 250 177 L 250 193 L 250 198 L 270 198 L 270 194 L 286 194 L 286 198 L 302 198 L 302 194 L 318 194 L 318 198 L 334 198 L 334 194 L 350 194 L 350 198 L 366 198 L 370 198 L 370 177 L 374 177 L 374 161 L 370 161 L 370 145 L 370 140 L 350 140 L 350 144 L 334 144 L 334 140 L 318 140 L 318 144 L 302 144 L 302 140 L 286 140 L 286 144 L 270 144 L 270 140 L 254 140 L 250 140 Z" id="right_outsideCutPath" stroke="#FF0000" stroke-width="0.1" style="stroke:#FF0000;stroke-width:0.1" vector-effect="non-scaling-stroke"/><path d="M 381 4 L 381 24 L 377 24 L 377 40 L 381 40 L 381 56 L 377 56 L 377 72 L 381 72 L 381 88 L 377 88 L 377 104 L 381 104 L 381 120 L 381 124 L 394.5 124 L 394.5 128 L 410.5 128 L 410.5 124 L 426.5 124 L 426.5 128 L 442.5 128 L 442.5 124 L 458.5 124 L 458.5 128 L 474.5 128 L 474.5 124 L 490.5 124 L 490.5 128 L 506.5 128 L 506.5 124 L 522.5 124 L 522.5 128 L 538.5 128 L 538.5 124 L 554.5 124 L 554.5 128 L 570.5 128 L 570.5 124 L 586.5 124 L 586.5 128 L 602.5 128 L 602.5 124 L 616 124 L 616 104 L 620 104 L 620 88 L 616 88 L 616 72 L 620 72 L 620 56 L 616 56 L 616 40 L 620 40 L 620 24 L 616 24 L 616 8 L 616 4 L 602.5 4 L 602.5 0 L 586.5 0 L 586.5 4 L 570.5 4 L 570.5 0 L 554.5 0 L 554.5 4 L 538.5 4 L 538.5 0 L 522.5 0 L 522.5 4 L 506.5 4 L 506.5 0 L 490.5 0 L 490.5 4 L 474.5 4 L 474.5 0 L 458.5 0 L 458.5 4 L 442.5 4 L 442.5 0 L 426.5 0 L 426.5 4 L 410.5 4 L 410.5 0 L 394.5 0 L 394.5 4 L 381 4 Z" id="bottom_outsideCutPath" stroke="#FF0000" stroke-width="0.1" style="stroke:#FF0000;stroke-width:0.1" vector-effect="non-scaling-stroke"/></g></svg>